<svg xmlns="http://www.w3.org/2000/svg" width="24" height="24" viewBox="0 0 24 24"><defs><style>.a{fill:#323232;}</style></defs><g transform="translate(-400 -278.276)"><path class="a" d="M412,278.276a12,12,0,1,0,12,12,12.014,12.014,0,0,0-12-12Zm5.355,9.254c0,.118.007.238.007.359a7.855,7.855,0,0,1-12.093,6.615,5.553,5.553,0,0,0,4.09-1.142,2.766,2.766,0,0,1-2.579-1.919,2.655,2.655,0,0,0,.519.05,2.729,2.729,0,0,0,.727-.1,2.762,2.762,0,0,1-2.216-2.707.179.179,0,0,1,0-.036,2.726,2.726,0,0,0,1.251.344,2.763,2.763,0,0,1-.857-3.686A7.842,7.842,0,0,0,411.9,288.2a2.764,2.764,0,0,1,4.706-2.521,5.458,5.458,0,0,0,1.756-.67,2.774,2.774,0,0,1-1.216,1.529,5.475,5.475,0,0,0,1.586-.434,5.618,5.618,0,0,1-1.376,1.428Zm0,0"/></g></svg>